<svg width="25" height="24" viewBox="0 0 25 24" fill="none" xmlns="http://www.w3.org/2000/svg">
<path d="M19.0188 11H7.1588L10.7888 6.64003C10.9585 6.43581 11.0402 6.17253 11.0158 5.90811C10.9914 5.64368 10.863 5.39977 10.6588 5.23003C10.4546 5.06029 10.1913 4.97863 9.92688 5.00301C9.66245 5.02739 9.41854 5.15581 9.2488 5.36003L4.2488 11.36C4.21516 11.4078 4.18508 11.4579 4.1588 11.51C4.1588 11.56 4.1588 11.59 4.0888 11.64C4.04347 11.7547 4.01974 11.8767 4.0188 12C4.01974 12.1233 4.04347 12.2454 4.0888 12.36C4.0888 12.41 4.0888 12.44 4.1588 12.49C4.18508 12.5422 4.21516 12.5923 4.2488 12.64L9.2488 18.64C9.34282 18.7529 9.46056 18.8437 9.59365 18.9059C9.72673 18.9681 9.87189 19.0003 10.0188 19C10.2525 19.0005 10.4789 18.9191 10.6588 18.77C10.7601 18.6861 10.8438 18.583 10.9051 18.4666C10.9665 18.3503 11.0043 18.223 11.0163 18.092C11.0284 17.961 11.0145 17.829 10.9755 17.7034C10.9364 17.5777 10.873 17.4611 10.7888 17.36L7.1588 13H19.0188C19.284 13 19.5384 12.8947 19.7259 12.7071C19.9134 12.5196 20.0188 12.2652 20.0188 12C20.0188 11.7348 19.9134 11.4805 19.7259 11.2929C19.5384 11.1054 19.284 11 19.0188 11Z" fill="black"/>
</svg>
