<svg width="24" height="24" viewBox="0 0 24 24" fill="none" xmlns="http://www.w3.org/2000/svg">
<path d="M3.7939 12.03C4.3309 9.342 4.5999 8 5.4869 7.134C5.65083 6.97444 5.82815 6.82924 6.0169 6.7C7.0399 6 8.4099 6 11.1499 6H12.8529C15.5919 6 16.9609 6 17.9829 6.7C18.1729 6.83 18.3499 6.976 18.5129 7.135C19.4009 8 19.6699 9.343 20.2069 12.029C20.9779 15.885 21.3639 17.813 20.4759 19.179C20.3159 19.427 20.1279 19.656 19.9159 19.862C18.7499 21 16.7849 21 12.8529 21H11.1499C7.2169 21 5.2509 21 4.0849 19.862C3.87393 19.6557 3.68646 19.4266 3.5259 19.179C2.6379 17.813 3.0239 15.885 3.7959 12.029L3.7939 12.03Z" stroke="black" stroke-width="1.5"/>
<path d="M15 10C15.5523 10 16 9.55228 16 9C16 8.44772 15.5523 8 15 8C14.4477 8 14 8.44772 14 9C14 9.55228 14.4477 10 15 10Z" fill="black"/>
<path d="M9 10C9.55228 10 10 9.55228 10 9C10 8.44772 9.55228 8 9 8C8.44772 8 8 8.44772 8 9C8 9.55228 8.44772 10 9 10Z" fill="black"/>
<path d="M9 6V5C9 4.20435 9.31607 3.44129 9.87868 2.87868C10.4413 2.31607 11.2044 2 12 2C12.7956 2 13.5587 2.31607 14.1213 2.87868C14.6839 3.44129 15 4.20435 15 5V6" stroke="black" stroke-width="1.5" stroke-linecap="round"/>
</svg>
