<svg width="24" height="24" viewBox="0 0 24 24" fill="none" xmlns="http://www.w3.org/2000/svg">
<path fill-rule="evenodd" clip-rule="evenodd" d="M2.24902 2.29202C2.06125 2.22598 1.85493 2.23724 1.67546 2.32332C1.49599 2.4094 1.35806 2.56325 1.29202 2.75102C1.22598 2.9388 1.23724 3.14511 1.32332 3.32458C1.4094 3.50406 1.56325 3.64198 1.75102 3.70802L2.01302 3.79902C2.68002 4.03402 3.11902 4.18902 3.44202 4.34802C3.74502 4.49702 3.87902 4.61802 3.96702 4.74602C4.05702 4.87802 4.12702 5.06002 4.16702 5.42302C4.20702 5.80302 4.20802 6.29802 4.20802 7.03802V9.76002C4.20802 11.213 4.22202 12.26 4.35902 13.06C4.50502 13.914 4.79702 14.526 5.34402 15.102C5.93802 15.729 6.69002 16.002 7.58702 16.128C8.44502 16.25 9.53502 16.25 10.88 16.25H16.286C17.028 16.25 17.652 16.25 18.156 16.188C18.693 16.123 19.181 15.979 19.608 15.632C20.034 15.284 20.273 14.835 20.445 14.323C20.608 13.841 20.734 13.23 20.884 12.503L21.392 10.034L21.394 10.029L21.404 9.97702C21.569 9.15202 21.707 8.45802 21.742 7.90002C21.778 7.31402 21.711 6.73602 21.329 6.24002C21.094 5.93402 20.764 5.76102 20.463 5.65602C20.1378 5.54909 19.8018 5.47866 19.461 5.44602C18.773 5.37002 17.939 5.37002 17.121 5.37002H5.66702C5.66402 5.33399 5.66068 5.29799 5.65702 5.26202C5.60302 4.76502 5.48702 4.31202 5.20402 3.90002C4.92002 3.48402 4.54202 3.21802 4.10202 3.00102C3.69002 2.79902 3.16602 2.61502 2.54902 2.39802L2.24802 2.29202H2.24902ZM5.70902 6.87002H17.089C17.945 6.87002 18.699 6.87102 19.294 6.93702C19.59 6.97102 19.811 7.01702 19.966 7.07102C20.0293 7.08913 20.0889 7.11824 20.142 7.15702C20.204 7.23902 20.27 7.38702 20.244 7.80802C20.217 8.25202 20.101 8.84402 19.923 9.73402V9.73602L19.423 12.156C19.263 12.939 19.153 13.459 19.024 13.844C18.901 14.21 18.785 14.367 18.66 14.469C18.535 14.571 18.357 14.653 17.975 14.699C17.571 14.749 17.04 14.75 16.241 14.75H10.938C9.52102 14.75 8.53802 14.748 7.79802 14.643C7.08202 14.542 6.70502 14.358 6.43202 14.07C6.11202 13.732 5.93902 13.402 5.83702 12.807C5.72702 12.157 5.70802 11.249 5.70802 9.76002L5.70902 6.87002ZM7.50002 21.75C6.90328 21.75 6.33099 21.513 5.90903 21.091C5.48708 20.6691 5.25002 20.0968 5.25002 19.5C5.25002 18.9033 5.48708 18.331 5.90903 17.909C6.33099 17.4871 6.90328 17.25 7.50002 17.25C8.09676 17.25 8.66906 17.4871 9.09101 17.909C9.51297 18.331 9.75002 18.9033 9.75002 19.5C9.75002 20.0968 9.51297 20.6691 9.09101 21.091C8.66906 21.513 8.09676 21.75 7.50002 21.75ZM6.75002 19.5C6.75002 19.6989 6.82904 19.8897 6.96969 20.0304C7.11034 20.171 7.30111 20.25 7.50002 20.25C7.69893 20.25 7.8897 20.171 8.03035 20.0304C8.171 19.8897 8.25002 19.6989 8.25002 19.5C8.25002 19.3011 8.171 19.1103 8.03035 18.9697C7.8897 18.829 7.69893 18.75 7.50002 18.75C7.30111 18.75 7.11034 18.829 6.96969 18.9697C6.82904 19.1103 6.75002 19.3011 6.75002 19.5ZM16.5 21.75C15.9033 21.75 15.331 21.513 14.909 21.091C14.4871 20.6691 14.25 20.0968 14.25 19.5C14.25 18.9033 14.4871 18.331 14.909 17.909C15.331 17.4871 15.9033 17.25 16.5 17.25C17.0968 17.25 17.6691 17.4871 18.091 17.909C18.513 18.331 18.75 18.9033 18.75 19.5C18.75 20.0968 18.513 20.6691 18.091 21.091C17.6691 21.513 17.0968 21.75 16.5 21.75ZM15.75 19.5C15.75 19.6989 15.829 19.8897 15.9697 20.0304C16.1103 20.171 16.3011 20.25 16.5 20.25C16.6989 20.25 16.8897 20.171 17.0304 20.0304C17.171 19.8897 17.25 19.6989 17.25 19.5C17.25 19.3011 17.171 19.1103 17.0304 18.9697C16.8897 18.829 16.6989 18.75 16.5 18.75C16.3011 18.75 16.1103 18.829 15.9697 18.9697C15.829 19.1103 15.75 19.3011 15.75 19.5Z" fill="black"/>
</svg>
