<svg width="24" height="24" viewBox="0 0 24 24" fill="none" xmlns="http://www.w3.org/2000/svg">
<g clip-path="url(#clip0_1804_23)">
<path fill-rule="evenodd" clip-rule="evenodd" d="M10.3167 0.697542L8.50874 2.50394C8.36275 2.64999 8.16485 2.73226 7.95834 2.73274H5.11354C3.79834 2.73274 2.73274 3.79834 2.73274 5.11354V7.95834C2.73233 8.16533 2.65009 8.36376 2.50394 8.51034L0.695942 10.3167C0.249626 10.7632 -0.00109863 11.3687 -0.00109863 11.9999C-0.00109863 12.6312 0.249626 13.2367 0.695942 13.6831L2.50394 15.4911C2.64999 15.6371 2.73226 15.835 2.73274 16.0415V18.8863C2.73274 20.2015 3.79834 21.2671 5.11354 21.2671H7.95834C8.16533 21.2675 8.36376 21.3498 8.51034 21.4959L10.3167 23.3039C10.7632 23.7503 11.3687 24.001 11.9999 24.001C12.6312 24.001 13.2367 23.7503 13.6831 23.3039L15.4911 21.4959C15.6371 21.3499 15.835 21.2676 16.0415 21.2671H18.8863C20.2015 21.2671 21.2671 20.2015 21.2671 18.8863V16.0415C21.2675 15.8346 21.3498 15.6361 21.4959 15.4895L23.3039 13.6831C23.7503 13.2367 24.001 12.6312 24.001 11.9999C24.001 11.3687 23.7503 10.7632 23.3039 10.3167L21.4959 8.50874C21.3499 8.36275 21.2676 8.16485 21.2671 7.95834V5.11354C21.2671 3.79834 20.2015 2.73274 18.8863 2.73274H16.0415C15.8345 2.73268 15.6359 2.65038 15.4895 2.50394L13.6831 0.695942C13.2367 0.249626 12.6312 -0.00109863 11.9999 -0.00109863C11.3687 -0.00109863 10.7632 0.251226 10.3167 0.697542ZM7.43354 15.4335L15.4335 7.43354L16.5663 8.56634L8.56634 16.5663L7.43354 15.4335ZM7.99994 7.99994V9.59994H9.59994V7.99994H7.99994ZM14.3999 15.9999H15.9999V14.3999H14.3999V15.9999Z" fill="black"/>
</g>
<defs>
<clipPath id="clip0_1804_23">
<rect width="24" height="24" fill="white"/>
</clipPath>
</defs>
</svg>
