<svg width="25" height="24" viewBox="0 0 25 24" fill="none" xmlns="http://www.w3.org/2000/svg">
<path d="M7.0188 12.5C7.15141 12.5 7.27858 12.4473 7.37235 12.3536C7.46612 12.2598 7.5188 12.1326 7.5188 12C7.5188 11.8674 7.46612 11.7402 7.37235 11.6464C7.27858 11.5527 7.15141 11.5 7.0188 11.5C6.88619 11.5 6.75901 11.5527 6.66525 11.6464C6.57148 11.7402 6.5188 11.8674 6.5188 12C6.5188 12.1326 6.57148 12.2598 6.66525 12.3536C6.75901 12.4473 6.88619 12.5 7.0188 12.5ZM12.0188 12.5C12.1514 12.5 12.2786 12.4473 12.3724 12.3536C12.4661 12.2598 12.5188 12.1326 12.5188 12C12.5188 11.8674 12.4661 11.7402 12.3724 11.6464C12.2786 11.5527 12.1514 11.5 12.0188 11.5C11.8862 11.5 11.759 11.5527 11.6652 11.6464C11.5715 11.7402 11.5188 11.8674 11.5188 12C11.5188 12.1326 11.5715 12.2598 11.6652 12.3536C11.759 12.4473 11.8862 12.5 12.0188 12.5ZM17.0188 12.5C17.1514 12.5 17.2786 12.4473 17.3724 12.3536C17.4661 12.2598 17.5188 12.1326 17.5188 12C17.5188 11.8674 17.4661 11.7402 17.3724 11.6464C17.2786 11.5527 17.1514 11.5 17.0188 11.5C16.8862 11.5 16.759 11.5527 16.6652 11.6464C16.5715 11.7402 16.5188 11.8674 16.5188 12C16.5188 12.1326 16.5715 12.2598 16.6652 12.3536C16.759 12.4473 16.8862 12.5 17.0188 12.5Z" fill="black" stroke="black" stroke-width="1.5" stroke-linecap="round" stroke-linejoin="round"/>
<path d="M12.0188 22C17.5418 22 22.0188 17.523 22.0188 12C22.0188 6.477 17.5418 2 12.0188 2C6.4958 2 2.0188 6.477 2.0188 12C2.0188 17.523 6.4958 22 12.0188 22Z" stroke="black" stroke-width="1.5" stroke-linecap="round" stroke-linejoin="round"/>
</svg>
