<svg width="24" height="24" viewBox="0 0 24 24" fill="none" xmlns="http://www.w3.org/2000/svg">
<g clip-path="url(#clip0_1783_6)">
<path d="M23.8449 3.00795C23.4279 2.47495 22.6989 2.90195 22.3779 3.08795C20.0939 4.43395 19.7569 6.80395 18.9609 8.16495C18.3349 9.25495 17.3089 10.0549 16.3809 10.1169C15.6949 10.1659 14.9509 10.0329 14.2129 9.71195C12.4059 8.93095 11.4329 7.91995 11.1959 7.74195C10.7089 7.37195 6.9659 3.72695 3.9159 3.57795C3.9159 3.57795 3.5439 2.82795 3.4509 2.81495C3.2289 2.78995 3.0009 3.26595 2.8349 3.31595C2.6849 3.36895 2.4219 2.80395 2.2699 2.82895C2.1169 2.84895 1.9679 3.41495 1.6699 3.70595C1.4499 3.91895 1.1839 3.90595 1.0329 4.16895C0.980897 4.26495 0.998897 4.43395 0.939897 4.58895C0.812897 4.90895 0.388897 4.94295 0.384897 5.28595C0.384897 5.66695 0.741897 5.73995 1.0539 6.00595C1.3019 6.21795 1.3189 6.36795 1.6079 6.46695C1.8659 6.55495 2.2399 6.27995 2.5719 6.37895C2.8489 6.45995 3.1149 6.51895 3.1739 6.80195C3.2279 7.05795 3.1739 7.45995 2.8339 7.41495C2.7219 7.39995 2.2359 7.24095 1.6359 7.30495C0.910897 7.38195 0.0828967 7.61395 0.00189671 8.41495C-0.0391033 8.86195 0.515897 9.38495 1.0569 9.28095C1.4279 9.20995 1.2529 8.77495 1.4559 8.56495C1.7229 8.29495 3.2279 9.50895 4.6279 9.50895C5.2209 9.50895 5.6589 9.35895 6.0949 8.90395C6.1349 8.87495 6.1879 8.80195 6.2499 8.79395C6.31943 8.81199 6.38537 8.84175 6.4449 8.88195C7.5759 9.77895 8.4289 11.5819 12.5749 11.6029C13.1569 11.6099 13.8249 11.8819 14.3709 12.3799C14.8509 12.8129 15.1349 13.5049 15.4079 14.2049C15.8259 15.2579 16.5689 16.2739 17.6999 17.4079C17.7599 17.4759 18.6899 18.1879 18.7599 18.2409C18.7719 18.2509 18.8439 18.4079 18.8129 18.4959C18.7929 19.1859 18.6899 21.1659 20.1779 21.2489C20.5439 21.2689 20.4529 21.0179 20.4529 20.8389C20.4479 20.4979 20.3879 20.1539 20.5659 19.7989C20.8189 19.3209 20.0399 19.0899 20.0569 18.0429C20.0759 17.2589 19.4119 17.3919 19.0729 16.7929C18.8829 16.4499 18.7049 16.2609 18.7229 15.8469C18.7959 13.4669 18.2059 11.8989 17.9179 11.5199C17.6909 11.2259 17.4949 11.1169 17.7109 10.9799C18.9509 10.1649 19.2359 9.40595 19.2359 9.40595C19.8959 7.86495 20.4919 6.46095 21.3109 5.83595C21.4769 5.71595 21.8999 5.39595 22.1629 5.27595C22.9259 4.91395 23.3359 4.69795 23.5509 4.48795C23.9069 4.15095 24.1859 3.43495 23.8449 3.00795Z" fill="black"/>
</g>
<defs>
<clipPath id="clip0_1783_6">
<rect width="24" height="24" fill="white"/>
</clipPath>
</defs>
</svg>
