<svg width="25" height="24" viewBox="0 0 25 24" fill="none" xmlns="http://www.w3.org/2000/svg">
<g clip-path="url(#clip0_1783_8)">
<path d="M15.0098 11.48C17.7628 10.38 19.4768 9.74801 24.0188 8.64001C21.5518 8.80301 16.0968 9.17701 12.3368 9.91101L15.0098 11.481M6.4498 15.132H10.0498C10.7628 14.052 11.4718 13.526 12.2978 12.941C11.6705 12.6984 11.0397 12.4648 10.4058 12.24C8.1088 13.254 6.8308 14.615 6.4528 15.132M7.1618 11.204C3.9518 12.351 2.1678 13.597 0.962799 15.132H4.9378C5.3248 14.593 6.7998 13.039 9.5708 11.958C8.77312 11.6889 7.97059 11.4375 7.1618 11.204ZM8.8088 8.78801H0.0187988C8.8808 10.388 13.1518 12.448 20.0188 15.36C19.4318 14.921 9.9678 9.34701 8.8098 8.78801" fill="black"/>
</g>
<defs>
<clipPath id="clip0_1783_8">
<rect width="24" height="24" fill="white" transform="translate(0.0187988)"/>
</clipPath>
</defs>
</svg>
