<svg width="29" height="29" viewBox="0 0 29 29" fill="none" xmlns="http://www.w3.org/2000/svg">
<g filter="url(#filter0_d_1804_29)">
<path fill-rule="evenodd" clip-rule="evenodd" d="M23.1 8.004C23.045 8 22.984 8 22.92 8H20.395C18.327 8 16.558 9.628 16.558 11.75C16.558 13.872 18.328 15.5 20.395 15.5H22.92C22.984 15.5 23.045 15.5 23.102 15.496C23.527 15.4704 23.9282 15.2911 24.2309 14.9916C24.5335 14.6921 24.7169 14.2927 24.747 13.868C24.751 13.808 24.751 13.743 24.751 13.683V9.817C24.751 9.757 24.751 9.692 24.747 9.632C24.7169 9.20726 24.5335 8.80793 24.2309 8.50842C23.9282 8.2089 23.527 8.02963 23.102 8.004H23.1ZM20.172 12.75C20.704 12.75 21.135 12.302 21.135 11.75C21.135 11.198 20.704 10.75 20.172 10.75C19.639 10.75 19.208 11.198 19.208 11.75C19.208 12.302 19.639 12.75 20.172 12.75Z" fill="black"/>
<path fill-rule="evenodd" clip-rule="evenodd" d="M22.918 17C22.9526 16.9986 22.987 17.0054 23.0184 17.0198C23.0499 17.0342 23.0775 17.0558 23.099 17.0829C23.1206 17.11 23.1354 17.1418 23.1424 17.1757C23.1493 17.2096 23.1481 17.2446 23.139 17.278C22.939 17.99 22.62 18.598 22.109 19.108C21.36 19.858 20.411 20.189 19.239 20.347C18.099 20.5 16.644 20.5 14.806 20.5H12.694C10.856 20.5 9.4 20.5 8.261 20.347C7.089 20.189 6.14 19.857 5.391 19.109C4.643 18.36 4.311 17.411 4.153 16.239C4 15.099 4 13.644 4 11.806V11.694C4 9.856 4 8.4 4.153 7.26C4.311 6.088 4.643 5.139 5.391 4.39C6.14 3.642 7.089 3.31 8.261 3.152C9.401 3 10.856 3 12.694 3H14.806C16.644 3 18.1 3 19.239 3.153C20.411 3.311 21.36 3.643 22.109 4.391C22.62 4.903 22.939 5.51 23.139 6.222C23.1481 6.25537 23.1493 6.29042 23.1424 6.32432C23.1354 6.35822 23.1206 6.39 23.099 6.41708C23.0775 6.44417 23.0499 6.46579 23.0184 6.4802C22.987 6.4946 22.9526 6.50139 22.918 6.5H20.394C17.557 6.5 15.057 8.74 15.057 11.75C15.057 14.76 17.557 17 20.394 17H22.918ZM7.75 7C7.55109 7 7.36032 7.07902 7.21967 7.21967C7.07902 7.36032 7 7.55109 7 7.75C7 7.94891 7.07902 8.13968 7.21967 8.28033C7.36032 8.42098 7.55109 8.5 7.75 8.5H11.75C11.9489 8.5 12.1397 8.42098 12.2803 8.28033C12.421 8.13968 12.5 7.94891 12.5 7.75C12.5 7.55109 12.421 7.36032 12.2803 7.21967C12.1397 7.07902 11.9489 7 11.75 7H7.75Z" fill="black"/>
</g>
<defs>
<filter id="filter0_d_1804_29" x="-2" y="0" width="32" height="32" filterUnits="userSpaceOnUse" color-interpolation-filters="sRGB">
<feFlood flood-opacity="0" result="BackgroundImageFix"/>
<feColorMatrix in="SourceAlpha" type="matrix" values="0 0 0 0 0 0 0 0 0 0 0 0 0 0 0 0 0 0 127 0" result="hardAlpha"/>
<feOffset dy="4"/>
<feGaussianBlur stdDeviation="2"/>
<feComposite in2="hardAlpha" operator="out"/>
<feColorMatrix type="matrix" values="0 0 0 0 0 0 0 0 0 0 0 0 0 0 0 0 0 0 0.25 0"/>
<feBlend mode="normal" in2="BackgroundImageFix" result="effect1_dropShadow_1804_29"/>
<feBlend mode="normal" in="SourceGraphic" in2="effect1_dropShadow_1804_29" result="shape"/>
</filter>
</defs>
</svg>
